<?xml version="1.0" encoding="iso-8859-1"?>
<!-- Uploaded to: SVG Repo, www.svgrepo.com, Generator: SVG Repo Mixer Tools -->
<svg height="800px" width="800px" version="1.1" id="Layer_1" xmlns="http://www.w3.org/2000/svg" xmlns:xlink="http://www.w3.org/1999/xlink" 
	 viewBox="0 0 512 512" xml:space="preserve">
<polygon style="fill:#FF6E1D;" points="506.435,0 439.652,0 428.522,122.435 506.435,100.174 "/>
<g>
	<polygon style="fill:#FF8430;" points="439.652,100.174 417.391,306.087 439.652,512 506.435,512 506.435,100.174 	"/>
	<polygon style="fill:#FF8430;" points="439.652,0 372.87,0 361.739,122.435 439.652,100.174 	"/>
</g>
<polygon style="fill:#FF9D49;" points="372.87,100.174 261.565,512 439.652,512 439.652,100.174 "/>
<polygon style="fill:#FFB55F;" points="5.565,0 5.565,100.174 211.478,122.435 189.217,0 "/>
<polygon style="fill:#FF9D49;" points="372.87,0 189.217,0 189.217,122.435 372.87,100.174 "/>
<polygon style="fill:#FFCC75;" points="5.565,100.174 5.565,512 189.217,512 211.478,306.087 189.217,100.174 "/>
<polygon style="fill:#FFB55F;" points="189.217,100.174 189.217,512 261.565,512 294.957,434.087 372.87,400.696 372.87,100.174 "/>
<polygon style="fill:#F9DCA7;" points="261.565,400.696 261.565,512 372.87,400.696 "/>
</svg>